<?xml version="1.0" standalone="no"?>
<!DOCTYPE svg PUBLIC "-//W3C//DTD SVG 20010904//EN"
 "http://www.w3.org/TR/2001/REC-SVG-20010904/DTD/svg10.dtd">
<svg version="1.0" xmlns="http://www.w3.org/2000/svg"
 width="500.000000pt" height="500.000000pt" viewBox="0 0 500.000000 500.000000"
 preserveAspectRatio="xMidYMid meet">
<metadata>
Created by potrace 1.11, written by Peter Selinger 2001-2013
</metadata>
<g transform="translate(0.000000,500.000000) scale(0.100000,-0.100000)"
fill="#000000" stroke="none">
<path d="M2513 4989 c-6 -8 -16 -32 -23 -54 -6 -22 -18 -54 -26 -72 -8 -17
-14 -34 -14 -38 0 -4 -6 -21 -14 -38 -8 -18 -38 -93 -66 -168 -43 -113 -56
-139 -78 -148 -34 -16 -249 -60 -271 -56 -9 2 -21 4 -27 4 -14 1 -46 32 -164
161 -162 176 -214 227 -237 234 -15 5 -53 -10 -130 -50 -59 -31 -119 -62 -133
-69 -164 -82 -180 -95 -180 -144 0 -22 21 -119 46 -217 56 -217 59 -233 56
-282 -2 -29 -182 -217 -221 -230 -41 -14 -78 -8 -261 43 -92 25 -224 57 -258
61 -37 5 -45 3 -70 -24 -15 -16 -49 -73 -77 -126 -27 -53 -53 -96 -57 -96 -4
0 -8 -4 -8 -9 0 -4 -19 -40 -41 -79 -30 -52 -40 -78 -35 -96 3 -13 82 -100
175 -193 93 -92 176 -180 186 -195 18 -28 16 -96 -5 -178 -5 -19 -11 -52 -14
-73 -12 -78 -41 -103 -166 -148 -52 -18 -97 -34 -100 -34 -3 -1 -32 -9 -65
-20 -33 -10 -62 -19 -65 -20 -3 0 -36 -11 -73 -24 -98 -33 -102 -41 -93 -209
11 -234 22 -316 44 -335 19 -17 63 -31 142 -46 30 -6 66 -14 80 -17 14 -3 74
-14 134 -25 199 -35 196 -33 239 -139 64 -157 73 -204 43 -239 -55 -66 -167
-203 -198 -244 -13 -17 -42 -54 -65 -82 -26 -32 -43 -62 -43 -78 0 -17 28 -64
82 -137 46 -60 105 -142 133 -181 52 -75 74 -92 115 -91 14 0 113 35 220 77
197 78 267 102 285 100 30 -3 65 -23 137 -77 79 -60 98 -85 92 -123 -2 -11 -6
-47 -9 -80 -7 -68 -9 -85 -19 -170 -19 -158 -22 -247 -11 -265 9 -14 110 -62
183 -86 26 -9 65 -25 87 -35 47 -21 169 -59 205 -64 48 -6 88 37 221 242 74
113 99 146 146 185 31 25 36 26 134 23 68 -2 108 -9 124 -19 14 -9 60 -90 121
-213 116 -236 146 -283 179 -283 13 0 61 9 107 20 46 11 101 22 123 25 62 10
209 43 239 55 49 18 54 43 72 415 5 114 10 149 23 172 14 27 148 104 182 105
31 1 124 -45 233 -116 235 -153 261 -164 307 -132 25 17 258 237 313 294 22
24 44 52 48 63 8 20 -46 131 -115 241 -19 29 -51 85 -72 123 -21 39 -43 73
-47 76 -13 8 -23 110 -12 117 5 4 21 29 34 55 36 70 71 97 128 98 161 5 270 7
365 8 98 1 110 3 131 24 19 19 51 117 72 222 2 11 15 65 29 120 37 145 40 177
18 196 -20 18 -279 166 -389 223 -39 20 -76 47 -83 59 -6 12 -12 68 -14 124
-2 121 -13 105 153 219 63 43 117 81 118 86 2 4 7 8 12 8 20 0 170 113 171
128 3 42 -7 78 -68 252 -36 102 -67 195 -70 207 -3 12 -14 31 -25 43 -22 24
-11 23 -228 4 -52 -4 -164 -12 -266 -19 -65 -5 -72 -3 -92 19 -42 49 -115 168
-118 193 -2 24 11 71 39 136 8 17 25 59 37 92 13 33 27 65 31 70 21 29 79 190
79 220 0 31 -9 41 -87 107 -49 40 -94 77 -101 83 -7 5 -23 19 -35 30 -60 55
-141 116 -162 121 -31 8 -64 -11 -166 -92 -47 -38 -98 -78 -113 -89 -16 -11
-33 -25 -40 -30 -40 -36 -99 -77 -126 -89 -40 -16 -89 -6 -196 44 -104 47
-107 54 -168 405 -29 163 -37 193 -54 208 -19 16 -54 24 -152 32 -36 4 -76 9
-90 11 -14 3 -77 8 -140 11 -91 4 -118 2 -127 -8z m-64 -914 c68 -3 136 -7
150 -9 14 -2 53 -7 86 -11 33 -3 76 -8 96 -11 20 -2 58 -6 84 -9 26 -2 49 -6
51 -8 5 -4 -65 -197 -76 -210 -4 -5 -17 -3 -29 5 -21 13 -21 27 -1 73 36 81
40 95 22 96 -9 1 -26 3 -37 4 -11 1 -63 5 -115 9 -106 7 -189 14 -267 21 -29
3 -53 3 -53 1 0 -3 25 -31 56 -63 31 -32 84 -92 118 -133 33 -41 63 -77 66
-80 4 -4 84 -96 150 -174 72 -85 110 -116 132 -112 13 3 35 7 50 10 14 3 46 8
70 11 62 8 324 52 453 77 61 11 116 21 123 21 19 1 10 6 -143 99 -77 47 -178
109 -224 137 -65 40 -86 49 -97 40 -8 -6 -14 -18 -14 -25 0 -7 -11 -39 -25
-69 -22 -51 -26 -55 -45 -45 -11 6 -20 14 -20 18 0 12 40 133 56 169 8 17 14
38 14 48 0 15 3 15 33 -2 17 -10 34 -20 37 -23 3 -3 25 -16 50 -29 25 -13 52
-29 60 -36 13 -10 208 -135 251 -160 32 -19 174 -114 187 -126 7 -6 11 -13 8
-16 -4 -5 -94 -23 -176 -37 -19 -3 -78 -15 -130 -27 -52 -11 -104 -22 -115
-24 -11 -1 -20 -3 -20 -4 0 -2 -7 -4 -15 -6 -89 -17 -130 -25 -160 -29 -19 -2
-55 -7 -80 -11 -25 -3 -56 -8 -70 -9 -14 -2 -46 -7 -71 -11 -46 -7 -46 -7 -85
41 -65 81 -70 86 -139 169 -93 111 -290 339 -325 376 -83 87 -88 99 -38 94 24
-3 99 -7 167 -10z m-527 -123 c26 -31 59 -70 74 -87 14 -16 43 -50 63 -74 20
-25 45 -54 56 -66 11 -11 39 -43 62 -70 74 -88 84 -99 140 -163 31 -35 65 -75
77 -90 11 -15 30 -36 41 -48 19 -20 43 -47 128 -148 23 -28 60 -69 82 -92 l40
-41 120 18 c66 9 145 20 175 24 30 3 96 12 145 20 50 8 110 16 135 19 25 3 56
8 70 10 14 3 48 7 75 11 28 3 64 8 81 11 17 3 46 6 65 8 19 2 104 14 189 26
85 12 175 24 200 27 l45 5 17 -46 c9 -25 14 -46 10 -47 -4 0 -20 -2 -37 -4
-16 -2 -43 -6 -60 -10 -73 -15 -172 -34 -200 -39 -57 -10 -110 -19 -130 -21
-11 -1 -20 -3 -20 -5 0 -1 -16 -3 -35 -5 -100 -8 -233 -32 -263 -47 -17 -9
-18 -21 -13 -156 3 -81 9 -169 12 -197 3 -27 7 -62 9 -76 3 -28 21 -24 -215
-54 -14 -2 -41 -6 -60 -9 -39 -6 -133 -16 -195 -21 -139 -12 -181 -18 -187
-29 -8 -11 -107 -308 -113 -336 -2 -8 -17 -58 -33 -110 -60 -187 -60 -177 13
-199 22 -7 49 -16 60 -20 77 -32 74 -31 84 -13 9 17 54 162 53 172 0 3 3 10 7
15 5 6 23 62 42 126 l34 117 135 22 c74 12 146 23 160 25 14 3 50 9 80 15 30
6 66 13 80 16 14 2 87 16 163 31 141 27 143 28 139 73 0 3 -3 41 -7 85 -12
166 -15 202 -20 258 -5 47 -3 57 9 58 9 1 19 2 24 3 4 1 30 6 57 11 28 4 57
10 65 11 8 2 35 6 60 9 25 4 52 8 60 10 22 6 238 43 291 50 46 6 47 6 57 -27
12 -39 29 -123 37 -190 5 -45 4 -48 -17 -49 -25 -1 -49 -3 -148 -13 -110 -10
-194 -18 -210 -21 -11 -1 -15 -15 -14 -56 1 -77 10 -165 17 -176 4 -6 28 -8
54 -6 27 3 67 5 91 6 27 1 42 6 42 14 0 7 -4 14 -10 14 -5 1 -14 2 -19 3 -5 0
-13 5 -18 10 -5 5 -3 6 5 2 7 -4 12 -2 12 6 0 10 3 9 9 -1 8 -12 12 -12 24 -2
11 9 17 9 22 1 4 -6 4 -14 1 -17 -3 -4 -6 -1 -6 6 0 7 -4 10 -9 7 -5 -3 -7
-14 -4 -25 3 -13 12 -17 31 -15 15 2 39 5 55 6 25 2 40 18 17 18 -5 0 -10 9
-10 21 0 18 5 20 48 17 47 -3 47 -3 46 -38 -2 -46 -14 -154 -18 -158 -2 -1
-30 -7 -62 -12 -33 -5 -75 -11 -94 -15 -19 -3 -53 -8 -75 -10 -22 -3 -51 -7
-65 -10 -14 -3 -48 -8 -76 -11 -28 -2 -62 -7 -75 -10 -13 -3 -37 -7 -54 -9
-39 -6 -105 -16 -130 -21 -11 -2 -40 -7 -65 -10 -25 -3 -76 -11 -115 -19 -83
-17 -125 -23 -185 -30 -178 -21 -231 -31 -241 -46 -4 -8 -25 -61 -45 -119 -19
-58 -44 -123 -54 -145 -10 -23 -22 -53 -25 -68 -4 -15 -11 -30 -16 -33 -5 -3
-9 -11 -9 -18 0 -8 -8 -31 -17 -52 -9 -22 -18 -43 -19 -49 -2 -10 -69 -196
-133 -375 -17 -47 -31 -87 -31 -90 -1 -3 -8 -30 -17 -60 -9 -30 -18 -59 -19
-65 -2 -5 -11 -37 -22 -70 -20 -67 -8 -62 -132 -54 -57 3 -146 20 -151 29 -7
12 24 99 33 94 6 -4 8 2 4 14 -4 11 -2 23 4 27 6 3 10 -4 11 -17 1 -13 2 -30
3 -38 0 -8 -3 -18 -9 -22 -6 -5 -5 -8 3 -8 6 0 12 -5 12 -11 0 -5 -4 -7 -10
-4 -6 3 -7 -1 -4 -9 8 -20 24 -11 24 12 0 14 12 56 38 132 3 8 6 20 7 25 0 6
4 17 7 25 10 23 69 208 72 222 1 7 4 18 7 23 4 6 10 24 14 40 5 17 9 32 10 35
30 104 47 158 54 171 16 29 6 35 -214 127 -49 20 -56 28 -37 41 11 8 63 142
65 170 1 12 5 21 9 21 4 0 8 5 8 10 0 6 -6 10 -14 10 -7 0 -23 -23 -36 -51
-17 -40 -24 -49 -33 -39 -9 10 -9 14 1 17 6 3 10 8 7 13 -5 7 27 93 66 177 10
24 19 47 19 52 0 5 8 15 18 22 14 11 15 11 4 -1 -14 -16 -16 -34 -3 -25 5 3
13 0 17 -6 4 -7 3 -9 -3 -6 -6 4 -10 -6 -9 -23 1 -30 16 -44 16 -15 0 8 4 23
10 33 10 17 70 168 75 187 1 6 6 19 10 30 47 117 47 115 26 148 -11 18 -28 41
-38 52 -10 11 -59 70 -107 130 -49 61 -96 119 -105 130 -36 44 -147 181 -158
195 -47 59 -66 80 -75 80 -6 0 -35 -19 -63 -42 -29 -24 -65 -52 -79 -62 -35
-25 -37 -19 30 -104 11 -15 65 -85 119 -157 54 -71 110 -144 124 -161 14 -18
33 -41 41 -52 9 -12 30 -36 47 -55 l30 -34 -33 -89 c-19 -49 -34 -92 -34 -97
0 -4 -9 -26 -19 -50 -10 -23 -51 -130 -90 -237 -40 -107 -81 -217 -91 -245
-11 -27 -21 -56 -22 -64 -2 -8 43 -37 117 -76 65 -35 121 -68 123 -75 3 -7 0
-22 -6 -33 -6 -12 -23 -56 -38 -97 -15 -41 -34 -93 -44 -115 -9 -22 -36 -94
-60 -160 -24 -66 -47 -125 -52 -132 -7 -8 -22 -7 -59 6 -73 26 -74 29 -41 102
15 35 29 66 30 69 2 10 20 56 57 140 57 132 60 121 -51 175 -85 41 -136 52
-120 26 4 -5 3 -11 -1 -13 -12 -5 -163 -312 -163 -331 0 -9 7 -17 15 -17 8 0
15 -6 15 -12 0 -9 4 -8 10 2 6 9 10 10 10 3 0 -18 -21 -27 -30 -13 -4 6 -10
11 -14 11 -25 -5 -210 126 -202 143 56 130 220 574 231 626 4 21 101 309 113
340 39 94 81 223 76 233 -4 7 -18 23 -30 37 -27 28 -77 85 -132 148 -58 66
-122 135 -265 283 -73 74 -158 166 -189 205 -70 85 -103 125 -121 144 -7 8
-26 32 -42 53 l-28 37 29 43 c16 23 31 47 34 52 3 6 23 34 44 63 l39 54 36
-43 c20 -24 65 -73 100 -109 77 -80 96 -106 81 -115 -15 -9 -51 5 -44 17 4 6
3 9 -2 6 -5 -3 -18 6 -28 20 -11 14 -14 22 -8 18 7 -4 12 -2 12 3 0 6 -9 11
-21 11 -16 0 -19 4 -14 23 5 16 4 18 -4 7 -8 -12 -12 -12 -29 3 -10 9 -22 17
-26 17 -4 0 28 -37 72 -82 44 -46 129 -134 190 -197 l109 -114 82 56 c46 32
87 57 92 57 5 0 9 4 9 8 0 8 122 100 139 105 8 2 49 -45 136 -157 47 -61 118
-150 130 -162 40 -43 144 -161 160 -182 46 -59 82 -87 107 -83 4 0 33 3 65 6
99 8 174 17 252 29 14 3 62 10 106 16 44 7 87 14 95 15 8 2 18 4 21 4 7 1 1
197 -6 218 -2 7 -12 11 -22 9 -10 -2 -56 -7 -103 -11 -47 -4 -94 -9 -105 -11
-11 -2 -54 -7 -95 -10 -41 -3 -85 -7 -97 -9 -22 -4 -52 24 -148 140 -28 33
-55 65 -61 70 -6 6 -37 42 -70 80 -32 39 -66 77 -74 85 -8 8 -40 44 -70 80
-30 36 -69 81 -86 100 -18 19 -43 48 -56 64 -21 25 -26 27 -39 14 -7 -7 -86
-62 -173 -122 l-159 -108 -51 54 c-28 30 -80 88 -116 128 -36 41 -87 99 -114
129 l-49 55 59 54 c77 71 139 113 156 107 8 -3 20 -16 28 -29 13 -22 61 -78
157 -185 18 -20 33 -39 33 -43 0 -5 5 -8 10 -8 11 0 107 69 149 107 l25 22
-35 44 c-19 25 -41 55 -49 67 -14 21 -67 91 -75 99 -9 9 7 -55 17 -66 6 -7 7
-13 3 -13 -4 0 -2 -7 5 -15 22 -26 0 -16 -28 13 -32 32 -87 111 -81 116 11 10
125 66 134 66 6 0 31 -26 57 -58z m112 -673 c-3 -5 0 -9 7 -9 21 0 0 -13 -25
-16 -19 -2 -24 2 -21 17 2 10 0 19 -5 19 -4 0 -7 8 -5 18 2 9 4 19 4 21 1 3
12 -6 26 -19 13 -12 22 -27 19 -31z m1996 -133 c0 -2 3 -12 7 -22 5 -14 2 -16
-15 -12 -12 4 -20 2 -16 -3 3 -5 0 -9 -5 -9 -6 0 -11 7 -11 15 0 8 5 15 11 15
5 0 7 5 4 10 -3 6 1 10 9 10 9 0 16 -2 16 -4z m-310 -102 c0 -2 -9 -4 -20 -4
-11 0 -20 4 -20 9 0 5 9 7 20 4 11 -3 20 -7 20 -9z m-2583 -212 c88 -114 216
-276 282 -360 67 -85 119 -158 115 -163 -3 -5 -59 -166 -124 -357 -145 -424
-173 -502 -182 -502 -8 0 -89 165 -186 380 -38 85 -86 189 -105 230 -20 41
-34 77 -32 81 4 6 123 21 185 23 31 1 35 -2 35 -24 0 -14 -4 -25 -10 -26 -5 0
-34 -4 -63 -8 -46 -7 -52 -10 -47 -27 4 -11 44 -101 89 -202 45 -100 93 -206
107 -235 19 -43 25 -50 31 -35 3 10 25 70 48 133 23 63 50 136 61 162 10 25
20 55 22 65 2 10 9 31 16 48 7 16 30 89 53 162 l40 133 -28 38 c-15 20 -30 39
-34 42 -3 3 -94 117 -203 253 -109 137 -200 247 -202 245 -2 -1 -6 -28 -10
-58 -7 -66 -11 -98 -25 -210 -6 -47 -13 -111 -17 -144 l-5 -59 48 8 c86 14 97
13 104 -16 7 -24 4 -28 -31 -38 -21 -6 -41 -11 -46 -10 -4 1 -10 0 -13 -1 -9
-3 -45 -10 -88 -16 l-42 -7 5 54 c4 30 8 70 10 89 4 45 13 124 26 224 6 43 12
100 14 125 4 48 16 146 21 171 1 8 3 21 3 28 1 6 4 12 9 11 4 0 80 -93 169
-207z m2381 187 c-18 -12 -68 -11 -68 0 0 11 37 18 63 12 15 -3 16 -6 5 -12z
m89 15 c-3 -3 -12 -4 -19 -1 -8 3 -5 6 6 6 11 1 17 -2 13 -5z m-288 -284 c0
-14 0 -27 1 -30 5 -14 10 -53 16 -127 6 -79 6 -83 -14 -83 -23 0 -38 28 -23
43 7 7 5 15 -7 23 -9 8 -12 14 -7 14 16 0 6 140 -10 140 -5 0 -4 4 4 9 8 5 11
16 8 25 -4 9 -2 16 3 16 6 0 9 3 9 8 -1 4 -1 14 0 22 3 24 22 -32 20 -60z
m711 -330 c0 -5 -2 -10 -4 -10 -3 0 -8 5 -11 10 -3 6 -1 10 4 10 6 0 11 -4 11
-10z m-17 -523 c-4 -7 -46 -75 -93 -150 -47 -76 -90 -145 -95 -155 -6 -9 -23
-37 -39 -62 -68 -106 -94 -147 -110 -173 l-17 -28 -27 31 c-15 17 -44 47 -64
67 -42 40 -48 67 -20 82 15 8 26 2 61 -35 24 -24 46 -44 50 -44 6 1 47 64 101
157 14 23 53 88 88 143 34 56 62 103 62 104 0 6 -162 -16 -295 -41 -16 -3 -41
-6 -55 -8 -14 -2 -38 -5 -55 -9 -58 -10 -333 -56 -339 -56 -14 0 -65 -140
-187 -508 -44 -134 -79 -245 -77 -247 3 -3 488 232 497 240 2 2 -16 31 -40 65
l-43 61 21 21 c12 11 26 18 31 14 12 -7 122 -169 122 -179 0 -6 -70 -41 -355
-177 -246 -117 -326 -152 -332 -146 -3 3 0 20 8 38 8 18 14 35 15 38 0 3 3 12
6 20 19 47 69 196 69 200 -1 3 3 19 8 35 5 17 21 71 36 120 56 189 145 427
169 452 6 6 31 14 56 18 25 3 52 8 60 10 8 2 35 7 60 10 25 2 56 7 70 10 38 8
84 16 170 30 19 3 46 8 60 10 61 13 77 15 134 20 34 3 70 7 81 9 11 2 52 7 90
11 39 4 72 9 74 11 2 2 15 4 28 4 17 0 22 -4 16 -13z m-1800 -144 c-4 -9 -2
-14 3 -10 5 3 14 -6 21 -19 12 -27 8 -30 -17 -11 -9 6 -6 2 7 -10 27 -26 29
-33 8 -33 -8 0 -15 5 -15 11 0 5 -4 8 -9 5 -5 -4 -16 -3 -24 0 -17 6 -15 30 3
63 13 25 32 28 23 4z m125 -579 c-1 -19 -6 -34 -10 -34 -4 0 -4 -7 -1 -17 4
-11 3 -14 -5 -9 -8 5 -10 2 -6 -8 4 -11 0 -16 -10 -16 -14 0 -15 -3 -5 -22 11
-21 11 -22 -4 -9 -15 11 -17 11 -17 -2 0 -9 -4 -18 -8 -21 -10 -6 6 59 32 131
21 57 38 61 34 7z"/>
<path d="M2318 1983 c7 -3 16 -2 19 1 4 3 -2 6 -13 5 -11 0 -14 -3 -6 -6z"/>
</g>
</svg>
